<?xml version="1.0" standalone="no"?>
 <!DOCTYPE svg PUBLIC "-//W3C//DTD SVG 1.1//EN" 
 "http://www.w3.org/Graphics/SVG/1.1/DTD/svg11.dtd"> 
<svg xmlns="http://www.w3.org/2000/svg" version="1.1" 
    width="48.2676cm" height="4.45262cm" viewBox="0 0 190030 17530 ">
<title>SVG Picture created as db25_panel-brd.svg date 2019/07/31 21:09:54 </title>
  <desc>Picture generated by PCBNEW </desc>
<g style="fill:#000000; fill-opacity:1;stroke:#000000; stroke-opacity:1;
stroke-linecap:round; stroke-linejoin:round; "
 transform="translate(0 0) scale(1 1)">
</g>
<g style="fill:#000000; fill-opacity:0.0; 
stroke:#000000; stroke-width:-0.000393701; stroke-opacity:1; 
stroke-linecap:round; stroke-linejoin:round;">
</g>
<g style="fill:#000000; fill-opacity:0.0; 
stroke:#000000; stroke-width:98.4252; stroke-opacity:1; 
stroke-linecap:round; stroke-linejoin:round;">
<path d="M92433 11718
L92433 13687
" />
<path d="M97649 11718
L97649 13687
" />
<path d="M92433 3844
L92433 5812
" />
<path d="M15897 4820
L14972 4820
" />
<path d="M14972 12702
L14972 4828
" />
<path d="M15897 12702
L14972 12702
" />
<path d="M174185 12710
L175110 12710
" />
<path d="M174185 4828
L175110 4828
" />
<path d="M175110 12710
L175110 4828
" />
<path d="M97649 3844
L97649 5812
" />
<path d="M94426 12646
L94538 12684
L94576 12721
L94613 12796
L94613 12908
L94576 12983
L94538 13021
L94464 13058
L94164 13058
L94164 12271
L94426 12271
L94501 12309
L94538 12346
L94576 12421
L94576 12496
L94538 12571
L94501 12609
L94426 12646
L94164 12646
" />
<path d="M95101 12271
L95251 12271
L95326 12309
L95401 12384
L95438 12534
L95438 12796
L95401 12946
L95326 13021
L95251 13058
L95101 13058
L95026 13021
L94951 12946
L94913 12796
L94913 12534
L94951 12384
L95026 12309
L95101 12271
" />
<path d="M95663 12271
L96113 12271
" />
<path d="M95888 13058
L95888 12271
" />
<path d="M94051 4397
L94501 4397
" />
<path d="M94276 5184
L94276 4397
" />
<path d="M94913 4397
L95063 4397
L95138 4435
L95213 4510
L95251 4660
L95251 4922
L95213 5072
L95138 5147
L95063 5184
L94913 5184
L94838 5147
L94763 5072
L94726 4922
L94726 4660
L94763 4510
L94838 4435
L94913 4397
" />
<path d="M95588 5184
L95588 4397
L95888 4397
L95963 4435
L96001 4472
L96038 4547
L96038 4660
L96001 4735
L95963 4772
L95888 4809
L95588 4809
" />
<path d="M146826 12702
L153503 12702
" />
<path d="M146826 4828
L153503 4828
" />
<path d="M119267 12702
L125944 12702
" />
<path d="M119267 4828
L125944 4828
" />
<path d="M64149 4828
L70826 4828
" />
<path d="M64149 12702
L70826 12702
" />
<path d="M36590 12702
L43267 12702
" />
<path d="M36590 4828
L43267 4828
" />
<path d="M98574 4820
L97649 4820
" />
<path d="M98574 12702
L97649 12702
" />
<path d="M91507 12710
L92433 12710
" />
<path d="M91507 4828
L92433 4828
" />
<path d="M134998 9159
L135148 9159
L135223 9121
L135260 9084
L135335 8971
L135373 8821
L135373 8521
L135335 8446
L135298 8409
L135223 8371
L135073 8371
L134998 8409
L134961 8446
L134923 8521
L134923 8709
L134961 8784
L134998 8821
L135073 8859
L135223 8859
L135298 8821
L135335 8784
L135373 8709
" />
<path d="M135710 8859
L136310 8859
" />
<path d="M137098 9159
L136648 9159
" />
<path d="M136873 9159
L136873 8371
L136798 8484
L136723 8559
L136648 8596
" />
<path d="M137773 8371
L137623 8371
L137548 8409
L137510 8446
L137435 8559
L137398 8709
L137398 9009
L137435 9084
L137473 9121
L137548 9159
L137698 9159
L137773 9121
L137810 9084
L137848 9009
L137848 8821
L137810 8746
L137773 8709
L137698 8671
L137548 8671
L137473 8709
L137435 8746
L137398 8821
" />
<path d="M107439 9159
L106989 9159
" />
<path d="M107214 9159
L107214 8371
L107139 8484
L107064 8559
L106989 8596
" />
<path d="M107701 8371
L108226 8371
L107889 9159
" />
<path d="M108526 8859
L109126 8859
" />
<path d="M109464 8446
L109501 8409
L109576 8371
L109764 8371
L109839 8409
L109876 8446
L109914 8521
L109914 8596
L109876 8709
L109426 9159
L109914 9159
" />
<path d="M110589 8634
L110589 9159
" />
<path d="M110401 8334
L110214 8896
L110701 8896
" />
<path d="M163307 9159
L162857 9159
" />
<path d="M163082 9159
L163082 8371
L163007 8484
L162932 8559
L162857 8596
" />
<path d="M163644 8859
L164244 8859
" />
<path d="M164732 8709
L164657 8671
L164619 8634
L164582 8559
L164582 8521
L164619 8446
L164657 8409
L164732 8371
L164882 8371
L164957 8409
L164994 8446
L165032 8521
L165032 8559
L164994 8634
L164957 8671
L164882 8709
L164732 8709
L164657 8746
L164619 8784
L164582 8859
L164582 9009
L164619 9084
L164657 9121
L164732 9159
L164882 9159
L164957 9121
L164994 9084
L165032 9009
L165032 8859
L164994 8784
L164957 8746
L164882 8709
" />
<path d="M80630 9159
L80180 9159
" />
<path d="M80405 9159
L80405 8371
L80330 8484
L80255 8559
L80180 8596
" />
<path d="M80967 8859
L81567 8859
" />
<path d="M82055 8709
L81980 8671
L81942 8634
L81905 8559
L81905 8521
L81942 8446
L81980 8409
L82055 8371
L82205 8371
L82280 8409
L82317 8446
L82355 8521
L82355 8559
L82317 8634
L82280 8671
L82205 8709
L82055 8709
L81980 8746
L81942 8784
L81905 8859
L81905 9009
L81942 9084
L81980 9121
L82055 9159
L82205 9159
L82280 9121
L82317 9084
L82355 9009
L82355 8859
L82317 8784
L82280 8746
L82205 8709
" />
<path d="M52321 9159
L52471 9159
L52546 9121
L52583 9084
L52658 8971
L52696 8821
L52696 8521
L52658 8446
L52621 8409
L52546 8371
L52396 8371
L52321 8409
L52283 8446
L52246 8521
L52246 8709
L52283 8784
L52321 8821
L52396 8859
L52546 8859
L52621 8821
L52658 8784
L52696 8709
" />
<path d="M53033 8859
L53633 8859
" />
<path d="M54421 9159
L53971 9159
" />
<path d="M54196 9159
L54196 8371
L54121 8484
L54046 8559
L53971 8596
" />
<path d="M55095 8371
L54946 8371
L54871 8409
L54833 8446
L54758 8559
L54721 8709
L54721 9009
L54758 9084
L54796 9121
L54871 9159
L55020 9159
L55095 9121
L55133 9084
L55170 9009
L55170 8821
L55133 8746
L55095 8709
L55020 8671
L54871 8671
L54796 8709
L54758 8746
L54721 8821
" />
<path d="M24762 9159
L24312 9159
" />
<path d="M24537 9159
L24537 8371
L24462 8484
L24387 8559
L24312 8596
" />
<path d="M25024 8371
L25549 8371
L25212 9159
" />
<path d="M25849 8859
L26449 8859
" />
<path d="M26787 8446
L26824 8409
L26899 8371
L27086 8371
L27161 8409
L27199 8446
L27236 8521
L27236 8596
L27199 8709
L26749 9159
L27236 9159
" />
<path d="M27911 8634
L27911 9159
" />
<path d="M27724 8334
L27536 8896
L28024 8896
" />
<g >
</g>
</g>
<g style="fill:#000000; fill-opacity:0.0; 
stroke:#000000; stroke-width:19.685; stroke-opacity:1; 
stroke-linecap:round; stroke-linejoin:round;">
<path d="M2775 1151
L5531 1151
" />
<path d="M2775.59 1151.58 A1377.95 1377.95 0.0 0 0 2775.59 3907.48 " />
<path d="M5531.5 3907.48 A1377.95 1377.95 0.0 0 0 5531.5 1151.58 " />
<path d="M5531 3907
L2775 3907
" />
<path d="M2775 13651
L5531 13651
" />
<path d="M2775.59 13651.6 A1377.95 1377.95 0.0 0 0 2775.59 16407.5 " />
<path d="M5531 16407
L2775 16407
" />
<path d="M5531.5 16407.5 A1377.95 1377.95 0.0 0 0 5531.5 13651.6 " />
<path d="M184508 13651.6 A1377.95 1377.95 0.0 0 0 184508 16407.5 " />
<path d="M187264 16407.5 A1377.95 1377.95 0.0 0 0 187264 13651.6 " />
<path d="M187263 16407
L184507 16407
" />
<path d="M184507 13651
L187263 13651
" />
<path d="M184508 1151.58 A1377.95 1377.95 0.0 0 0 184508 3907.48 " />
<path d="M187264 3907.48 A1377.95 1377.95 0.0 0 0 187264 1151.58 " />
<path d="M187263 3907
L184507 3907
" />
<path d="M184507 1151
L187263 1151
" />
<circle cx="35409.4" cy="12702.8" r="590.551" /> 
<path d="M45338 14805
L62078 14805
" />
<path d="M45338 10604
L62078 10604
" />
<path d="M45338 10604
L45338 14805
" />
<path d="M17779 10604
L17779 14805
" />
<path d="M34519 10604
L34519 14805
" />
<path d="M100456 10604
L117196 10604
" />
<circle cx="62968.5" cy="12702.8" r="590.551" /> 
<path d="M17779 14805
L34519 14805
" />
<circle cx="90527.6" cy="12702.8" r="590.551" /> 
<path d="M17779 10604
L34519 10604
" />
<path d="M72897 14805
L89637 14805
" />
<path d="M72897 10604
L89637 10604
" />
<circle cx="44448.8" cy="12702.8" r="590.551" /> 
<circle cx="127126" cy="12702.8" r="590.551" /> 
<path d="M100456 14805
L117196 14805
" />
<circle cx="99566.9" cy="12702.8" r="590.551" /> 
<circle cx="145646" cy="12702.8" r="590.551" /> 
<circle cx="118087" cy="12702.8" r="590.551" /> 
<path d="M89637 10604
L89637 14805
" />
<circle cx="173205" cy="12702.8" r="590.551" /> 
<path d="M117196 10604
L117196 14805
" />
<path d="M72897 10604
L72897 14805
" />
<path d="M155574 14805
L172314 14805
" />
<circle cx="16889.8" cy="12702.8" r="590.551" /> 
<path d="M172314 10604
L172314 14805
" />
<path d="M155574 10604
L172314 10604
" />
<path d="M128015 10604
L128015 14805
" />
<path d="M100456 10604
L100456 14805
" />
<path d="M128015 14805
L144755 14805
" />
<path d="M62078 10604
L62078 14805
" />
<path d="M144755 10604
L144755 14805
" />
<circle cx="154685" cy="12702.8" r="590.551" /> 
<path d="M128015 10604
L144755 10604
" />
<path d="M155574 10604
L155574 14805
" />
<circle cx="72007.9" cy="12702.8" r="590.551" /> 
<circle cx="154685" cy="4828.74" r="590.551" /> 
<circle cx="173205" cy="4828.74" r="590.551" /> 
<path d="M155574 2730
L155574 6931
" />
<path d="M155574 6931
L172314 6931
" />
<path d="M172314 2730
L172314 6931
" />
<path d="M155574 2730
L172314 2730
" />
<path d="M128015 2730
L144755 2730
" />
<path d="M128015 6931
L144755 6931
" />
<circle cx="127126" cy="4828.74" r="590.551" /> 
<circle cx="145646" cy="4828.74" r="590.551" /> 
<path d="M144755 2730
L144755 6931
" />
<path d="M128015 2730
L128015 6931
" />
<circle cx="118087" cy="4828.74" r="590.551" /> 
<path d="M100456 6931
L117196 6931
" />
<path d="M100456 2730
L117196 2730
" />
<path d="M117196 2730
L117196 6931
" />
<path d="M100456 2730
L100456 6931
" />
<circle cx="99566.9" cy="4828.74" r="590.551" /> 
<path d="M72897 6931
L89637 6931
" />
<path d="M72897 2730
L89637 2730
" />
<path d="M72897 2730
L72897 6931
" />
<circle cx="90527.6" cy="4828.74" r="590.551" /> 
<circle cx="72007.9" cy="4828.74" r="590.551" /> 
<path d="M89637 2730
L89637 6931
" />
<circle cx="62968.5" cy="4828.74" r="590.551" /> 
<path d="M45338 2730
L45338 6931
" />
<path d="M62078 2730
L62078 6931
" />
<path d="M45338 6931
L62078 6931
" />
<path d="M45338 2730
L62078 2730
" />
<circle cx="44448.8" cy="4828.74" r="590.551" /> 
<circle cx="16889.8" cy="4828.74" r="590.551" /> 
<path d="M17779 6931
L34519 6931
" />
<path d="M34519 2730
L34519 6931
" />
<path d="M17779 2730
L17779 6931
" />
<path d="M17779 2730
L34519 2730
" />
<circle cx="35409.4" cy="4828.74" r="590.551" /> 
</g>
<g style="fill:#000000; fill-opacity:0.0; 
stroke:#000000; stroke-width:39.3701; stroke-opacity:1; 
stroke-linecap:round; stroke-linejoin:round;">
<path d="M190019 19
L190019 17519
" />
<path d="M19 17519
L190019 17519
" />
<path d="M19 19
L19 17519
" />
<path d="M19 19
L190019 19
" />
<g >
</g>
</g> 
</svg>
