G04 #@! TF.GenerationSoftware,KiCad,Pcbnew,5.1.2*
G04 #@! TF.CreationDate,2019-07-31T20:07:22+01:00*
G04 #@! TF.ProjectId,db25_panel,64623235-5f70-4616-9e65-6c2e6b696361,rev?*
G04 #@! TF.SameCoordinates,Original*
G04 #@! TF.FileFunction,Legend,Top*
G04 #@! TF.FilePolarity,Positive*
%FSLAX46Y46*%
G04 Gerber Fmt 4.6, Leading zero omitted, Abs format (unit mm)*
G04 Created by KiCad (PCBNEW 5.1.2) date 2019-07-31 20:07:22*
%MOMM*%
%LPD*%
G04 APERTURE LIST*
%ADD10C,0.250000*%
G04 APERTURE END LIST*
D10*
X234730000Y-29715000D02*
X234730000Y-34715000D01*
X247980000Y-29715000D02*
X247980000Y-34715000D01*
X234730000Y-9715000D02*
X234730000Y-14715000D01*
X40330000Y-12195000D02*
X37980000Y-12195000D01*
X37980000Y-32215000D02*
X37980000Y-12215000D01*
X40330000Y-32215000D02*
X37980000Y-32215000D01*
X442380000Y-32235000D02*
X444730000Y-32235000D01*
X442380000Y-12215000D02*
X444730000Y-12215000D01*
X444730000Y-32235000D02*
X444730000Y-12215000D01*
X247980000Y-9715000D02*
X247980000Y-14715000D01*
X239793333Y-32072142D02*
X240079047Y-32167380D01*
X240174285Y-32262619D01*
X240269523Y-32453095D01*
X240269523Y-32738809D01*
X240174285Y-32929285D01*
X240079047Y-33024523D01*
X239888571Y-33119761D01*
X239126666Y-33119761D01*
X239126666Y-31119761D01*
X239793333Y-31119761D01*
X239983809Y-31215000D01*
X240079047Y-31310238D01*
X240174285Y-31500714D01*
X240174285Y-31691190D01*
X240079047Y-31881666D01*
X239983809Y-31976904D01*
X239793333Y-32072142D01*
X239126666Y-32072142D01*
X241507619Y-31119761D02*
X241888571Y-31119761D01*
X242079047Y-31215000D01*
X242269523Y-31405476D01*
X242364761Y-31786428D01*
X242364761Y-32453095D01*
X242269523Y-32834047D01*
X242079047Y-33024523D01*
X241888571Y-33119761D01*
X241507619Y-33119761D01*
X241317142Y-33024523D01*
X241126666Y-32834047D01*
X241031428Y-32453095D01*
X241031428Y-31786428D01*
X241126666Y-31405476D01*
X241317142Y-31215000D01*
X241507619Y-31119761D01*
X242936190Y-31119761D02*
X244079047Y-31119761D01*
X243507619Y-33119761D02*
X243507619Y-31119761D01*
X238840952Y-11119761D02*
X239983809Y-11119761D01*
X239412380Y-13119761D02*
X239412380Y-11119761D01*
X241031428Y-11119761D02*
X241412380Y-11119761D01*
X241602857Y-11215000D01*
X241793333Y-11405476D01*
X241888571Y-11786428D01*
X241888571Y-12453095D01*
X241793333Y-12834047D01*
X241602857Y-13024523D01*
X241412380Y-13119761D01*
X241031428Y-13119761D01*
X240840952Y-13024523D01*
X240650476Y-12834047D01*
X240555238Y-12453095D01*
X240555238Y-11786428D01*
X240650476Y-11405476D01*
X240840952Y-11215000D01*
X241031428Y-11119761D01*
X242745714Y-13119761D02*
X242745714Y-11119761D01*
X243507619Y-11119761D01*
X243698095Y-11215000D01*
X243793333Y-11310238D01*
X243888571Y-11500714D01*
X243888571Y-11786428D01*
X243793333Y-11976904D01*
X243698095Y-12072142D01*
X243507619Y-12167380D01*
X242745714Y-12167380D01*
X372890000Y-32215000D02*
X389850000Y-32215000D01*
X372890000Y-12215000D02*
X389850000Y-12215000D01*
X302890000Y-32215000D02*
X319850000Y-32215000D01*
X302890000Y-12215000D02*
X319850000Y-12215000D01*
X162890000Y-12215000D02*
X179850000Y-12215000D01*
X162890000Y-32215000D02*
X179850000Y-32215000D01*
X92890000Y-32215000D02*
X109850000Y-32215000D01*
X92890000Y-12215000D02*
X109850000Y-12215000D01*
X250330000Y-12195000D02*
X247980000Y-12195000D01*
X250330000Y-32215000D02*
X247980000Y-32215000D01*
X232380000Y-32235000D02*
X234730000Y-32235000D01*
X232380000Y-12215000D02*
X234730000Y-12215000D01*
X342846190Y-23214761D02*
X343227142Y-23214761D01*
X343417619Y-23119523D01*
X343512857Y-23024285D01*
X343703333Y-22738571D01*
X343798571Y-22357619D01*
X343798571Y-21595714D01*
X343703333Y-21405238D01*
X343608095Y-21310000D01*
X343417619Y-21214761D01*
X343036666Y-21214761D01*
X342846190Y-21310000D01*
X342750952Y-21405238D01*
X342655714Y-21595714D01*
X342655714Y-22071904D01*
X342750952Y-22262380D01*
X342846190Y-22357619D01*
X343036666Y-22452857D01*
X343417619Y-22452857D01*
X343608095Y-22357619D01*
X343703333Y-22262380D01*
X343798571Y-22071904D01*
X344655714Y-22452857D02*
X346179523Y-22452857D01*
X348179523Y-23214761D02*
X347036666Y-23214761D01*
X347608095Y-23214761D02*
X347608095Y-21214761D01*
X347417619Y-21500476D01*
X347227142Y-21690952D01*
X347036666Y-21786190D01*
X349893809Y-21214761D02*
X349512857Y-21214761D01*
X349322380Y-21310000D01*
X349227142Y-21405238D01*
X349036666Y-21690952D01*
X348941428Y-22071904D01*
X348941428Y-22833809D01*
X349036666Y-23024285D01*
X349131904Y-23119523D01*
X349322380Y-23214761D01*
X349703333Y-23214761D01*
X349893809Y-23119523D01*
X349989047Y-23024285D01*
X350084285Y-22833809D01*
X350084285Y-22357619D01*
X349989047Y-22167142D01*
X349893809Y-22071904D01*
X349703333Y-21976666D01*
X349322380Y-21976666D01*
X349131904Y-22071904D01*
X349036666Y-22167142D01*
X348941428Y-22357619D01*
X272846190Y-23214761D02*
X271703333Y-23214761D01*
X272274761Y-23214761D02*
X272274761Y-21214761D01*
X272084285Y-21500476D01*
X271893809Y-21690952D01*
X271703333Y-21786190D01*
X273512857Y-21214761D02*
X274846190Y-21214761D01*
X273989047Y-23214761D01*
X275608095Y-22452857D02*
X277131904Y-22452857D01*
X277989047Y-21405238D02*
X278084285Y-21310000D01*
X278274761Y-21214761D01*
X278750952Y-21214761D01*
X278941428Y-21310000D01*
X279036666Y-21405238D01*
X279131904Y-21595714D01*
X279131904Y-21786190D01*
X279036666Y-22071904D01*
X277893809Y-23214761D01*
X279131904Y-23214761D01*
X280846190Y-21881428D02*
X280846190Y-23214761D01*
X280370000Y-21119523D02*
X279893809Y-22548095D01*
X281131904Y-22548095D01*
X414750952Y-23214761D02*
X413608095Y-23214761D01*
X414179523Y-23214761D02*
X414179523Y-21214761D01*
X413989047Y-21500476D01*
X413798571Y-21690952D01*
X413608095Y-21786190D01*
X415608095Y-22452857D02*
X417131904Y-22452857D01*
X418370000Y-22071904D02*
X418179523Y-21976666D01*
X418084285Y-21881428D01*
X417989047Y-21690952D01*
X417989047Y-21595714D01*
X418084285Y-21405238D01*
X418179523Y-21310000D01*
X418370000Y-21214761D01*
X418750952Y-21214761D01*
X418941428Y-21310000D01*
X419036666Y-21405238D01*
X419131904Y-21595714D01*
X419131904Y-21690952D01*
X419036666Y-21881428D01*
X418941428Y-21976666D01*
X418750952Y-22071904D01*
X418370000Y-22071904D01*
X418179523Y-22167142D01*
X418084285Y-22262380D01*
X417989047Y-22452857D01*
X417989047Y-22833809D01*
X418084285Y-23024285D01*
X418179523Y-23119523D01*
X418370000Y-23214761D01*
X418750952Y-23214761D01*
X418941428Y-23119523D01*
X419036666Y-23024285D01*
X419131904Y-22833809D01*
X419131904Y-22452857D01*
X419036666Y-22262380D01*
X418941428Y-22167142D01*
X418750952Y-22071904D01*
X204750952Y-23214761D02*
X203608095Y-23214761D01*
X204179523Y-23214761D02*
X204179523Y-21214761D01*
X203989047Y-21500476D01*
X203798571Y-21690952D01*
X203608095Y-21786190D01*
X205608095Y-22452857D02*
X207131904Y-22452857D01*
X208370000Y-22071904D02*
X208179523Y-21976666D01*
X208084285Y-21881428D01*
X207989047Y-21690952D01*
X207989047Y-21595714D01*
X208084285Y-21405238D01*
X208179523Y-21310000D01*
X208370000Y-21214761D01*
X208750952Y-21214761D01*
X208941428Y-21310000D01*
X209036666Y-21405238D01*
X209131904Y-21595714D01*
X209131904Y-21690952D01*
X209036666Y-21881428D01*
X208941428Y-21976666D01*
X208750952Y-22071904D01*
X208370000Y-22071904D01*
X208179523Y-22167142D01*
X208084285Y-22262380D01*
X207989047Y-22452857D01*
X207989047Y-22833809D01*
X208084285Y-23024285D01*
X208179523Y-23119523D01*
X208370000Y-23214761D01*
X208750952Y-23214761D01*
X208941428Y-23119523D01*
X209036666Y-23024285D01*
X209131904Y-22833809D01*
X209131904Y-22452857D01*
X209036666Y-22262380D01*
X208941428Y-22167142D01*
X208750952Y-22071904D01*
X132846190Y-23214761D02*
X133227142Y-23214761D01*
X133417619Y-23119523D01*
X133512857Y-23024285D01*
X133703333Y-22738571D01*
X133798571Y-22357619D01*
X133798571Y-21595714D01*
X133703333Y-21405238D01*
X133608095Y-21310000D01*
X133417619Y-21214761D01*
X133036666Y-21214761D01*
X132846190Y-21310000D01*
X132750952Y-21405238D01*
X132655714Y-21595714D01*
X132655714Y-22071904D01*
X132750952Y-22262380D01*
X132846190Y-22357619D01*
X133036666Y-22452857D01*
X133417619Y-22452857D01*
X133608095Y-22357619D01*
X133703333Y-22262380D01*
X133798571Y-22071904D01*
X134655714Y-22452857D02*
X136179523Y-22452857D01*
X138179523Y-23214761D02*
X137036666Y-23214761D01*
X137608095Y-23214761D02*
X137608095Y-21214761D01*
X137417619Y-21500476D01*
X137227142Y-21690952D01*
X137036666Y-21786190D01*
X139893809Y-21214761D02*
X139512857Y-21214761D01*
X139322380Y-21310000D01*
X139227142Y-21405238D01*
X139036666Y-21690952D01*
X138941428Y-22071904D01*
X138941428Y-22833809D01*
X139036666Y-23024285D01*
X139131904Y-23119523D01*
X139322380Y-23214761D01*
X139703333Y-23214761D01*
X139893809Y-23119523D01*
X139989047Y-23024285D01*
X140084285Y-22833809D01*
X140084285Y-22357619D01*
X139989047Y-22167142D01*
X139893809Y-22071904D01*
X139703333Y-21976666D01*
X139322380Y-21976666D01*
X139131904Y-22071904D01*
X139036666Y-22167142D01*
X138941428Y-22357619D01*
X62846190Y-23214761D02*
X61703333Y-23214761D01*
X62274761Y-23214761D02*
X62274761Y-21214761D01*
X62084285Y-21500476D01*
X61893809Y-21690952D01*
X61703333Y-21786190D01*
X63512857Y-21214761D02*
X64846190Y-21214761D01*
X63989047Y-23214761D01*
X65608095Y-22452857D02*
X67131904Y-22452857D01*
X67989047Y-21405238D02*
X68084285Y-21310000D01*
X68274761Y-21214761D01*
X68750952Y-21214761D01*
X68941428Y-21310000D01*
X69036666Y-21405238D01*
X69131904Y-21595714D01*
X69131904Y-21786190D01*
X69036666Y-22071904D01*
X67893809Y-23214761D01*
X69131904Y-23214761D01*
X70846190Y-21881428D02*
X70846190Y-23214761D01*
X70370000Y-21119523D02*
X69893809Y-22548095D01*
X71131904Y-22548095D01*
M02*
